<?xml version="1.0" encoding="UTF-8" standalone="no"?>
<svg
   xmlns:dc="http://purl.org/dc/elements/1.1/"
   xmlns:cc="http://creativecommons.org/ns#"
   xmlns:rdf="http://www.w3.org/1999/02/22-rdf-syntax-ns#"
   xmlns:svg="http://www.w3.org/2000/svg"
   xmlns="http://www.w3.org/2000/svg"
   xmlns:sodipodi="http://sodipodi.sourceforge.net/DTD/sodipodi-0.dtd"
   xmlns:inkscape="http://www.inkscape.org/namespaces/inkscape"
   inkscape:version="1.0 (4035a4fb49, 2020-05-01)"
   sodipodi:docname="business_modified.svg"
   id="svg14"
   version="1.1"
   width="384pt"
   viewBox="-20 -99 384 283.19971"
   height="283.19971pt">
  <metadata
     id="metadata20">
    <rdf:RDF>
      <cc:Work
         rdf:about="">
        <dc:format>image/svg+xml</dc:format>
        <dc:type
           rdf:resource="http://purl.org/dc/dcmitype/StillImage" />
        <dc:title></dc:title>
      </cc:Work>
    </rdf:RDF>
  </metadata>
  <defs
     id="defs18" />
  <sodipodi:namedview
     fit-margin-bottom="0"
     fit-margin-right="0"
     fit-margin-left="0"
     fit-margin-top="0"
     inkscape:current-layer="svg14"
     inkscape:window-maximized="1"
     inkscape:window-y="27"
     inkscape:window-x="0"
     inkscape:cy="-202.66611"
     inkscape:cx="-663.85"
     inkscape:zoom="0.35341528"
     inkscape:guide-bbox="true"
     showguides="true"
     showgrid="false"
     id="namedview16"
     inkscape:window-height="1016"
     inkscape:window-width="1920"
     inkscape:pageshadow="2"
     inkscape:pageopacity="0"
     guidetolerance="10"
     gridtolerance="10"
     objecttolerance="10"
     borderopacity="1"
     bordercolor="#666666"
     pagecolor="#ffffff">
    <sodipodi:guide
       id="guide896"
       orientation="1,0"
       position="136.40972,435.29217" />
    <sodipodi:guide
       id="guide920"
       orientation="1,0"
       position="161.91968,550.08701" />
    <sodipodi:guide
       id="guide922"
       orientation="1,0"
       position="108.64888,546.33555" />
    <sodipodi:guide
       id="guide964"
       orientation="1,0"
       position="101.05217,234.49499" />
    <sodipodi:guide
       id="guide966"
       orientation="1,0"
       position="170.82941,235.33907" />
    <sodipodi:guide
       id="guide968"
       orientation="0,-1"
       position="107.07335,229.85966" />
  </sodipodi:namedview>
  <g
     transform="translate(-151.12794,-29.882813)"
     id="g981">
    <rect
       style="fill:#00c9ff;fill-opacity:1;stroke-width:1.13238;stroke-linecap:round;stroke-linejoin:round;stroke-miterlimit:4;stroke-dasharray:none"
       id="rect970"
       width="367.11462"
       height="266.91772"
       x="139.57063"
       y="-60.976189"
       ry="29.56699" />
    <path
       id="path943"
       style="fill:#000000;fill-opacity:1;stroke-width:1.0325;stroke-miterlimit:4;stroke-dasharray:none"
       d="m 254.83594,39.84375 c -29.45,0.01333 -53.3187,23.882031 -53.33203,53.332031 V 364.10938 c 0.0133,29.44999 23.88203,53.32065 53.33203,53.33398 h 155.19924 c 0,0 10.12882,0.0558 10.12888,-10.66699 6e-5,-10.81868 -8.76569,-10.89281 -8.76569,-10.89281 l -156.56243,0.22582 c -17.65,-0.05 -31.95,-14.35001 -32,-32 V 93.175781 c 0.05,-17.649999 14.35,-31.949998 32,-32 h 405.33398 c 17.65,0.05 31.95,14.350001 32,32 V 364.10938 c -0.05,17.64999 -14.35,31.95 -32,32 l -157.09841,-0.15169 c 0,0 -11.9615,-0.0844 -11.8801,10.81868 0.0796,10.66467 11.8801,10.66699 11.8801,10.66699 h 157.09841 c 29.45,-0.0133 53.32065,-23.88399 53.33399,-53.33398 V 93.175781 c -0.0133,-29.45 -23.88399,-53.318698 -53.33399,-53.332031 z"
       transform="matrix(0.75000002,0,0,0.75000002,-20,-99)"
       sodipodi:nodetypes="cccccsccccccccccscccccc" />
    <g
       id="g903"
       transform="translate(-13.438246,1.4603788)">
      <path
         style="stroke-width:0.64"
         id="path2"
         d="m 259.52586,67.547197 c 22.84251,0 41.36,-18.52 41.36,-41.360001 0,-22.8425027 -18.51749,-41.360001 -41.36,-41.360001 -22.8425,0 -41.36,18.5174983 -41.36,41.360001 0.03,22.829997 18.53,41.329998 41.36,41.360001 z m 0,-66.6400014 c 14.005,0 25.36,11.3524994 25.36,25.3600004 0,14.004999 -11.355,25.360001 -25.36,25.360001 -14.0075,0 -25.36,-11.355002 -25.36,-25.360001 0.005,-14.004999 11.355,-25.355002 25.36,-25.3600004 z m 0,0" />
      <path
         style="stroke-width:0.64"
         id="path4"
         d="m 259.52586,82.827198 c -16.9225,-0.124999 -33.165,6.667501 -44.96,18.800002 -12,12.24 -18.56,28.88 -18.56,46.96 0.0125,4.4125 3.5875,7.9875 8,8 h 111.04001 c 4.41249,-0.0125 7.9875,-3.5875 8,-8 0,-18.08 -6.56,-34.72 -18.56001,-46.96 -11.795,-12.132501 -28.035,-18.925001 -44.96,-18.800002 z m -46.96,57.760002 c 1.37001,-10.46 6.085,-20.195 13.44,-27.76 8.8525,-8.9575 20.925,-14.000002 33.52,-14.000002 12.59501,0 24.66751,5.042502 33.52,14.000002 7.34,7.5725 12.05501,17.305 13.44001,27.76 z m 0,0" />
      <path
         style="stroke-width:0.64"
         id="path8"
         d="m 469.12587,62.747197 h -93.2 c -4.4175,0 -8,3.58 -8,8 0,4.42 3.5825,8.000001 8,8.000001 h 93.2 c 4.4175,0 8,-3.580001 8,-8.000001 0,-4.42 -3.5825,-8 -8,-8 z m 0,0" />
      <path
         style="stroke-width:0.64"
         id="path10"
         d="m 469.12587,113.9472 h -93.2 c -4.4175,0 -8,3.58 -8,8 0,4.42 3.5825,8 8,8 h 93.2 c 4.4175,0 8,-3.58 8,-8 0,-4.42 -3.5825,-8 -8,-8 z m 0,0" />
      <path
         style="stroke-width:0.64"
         id="path12"
         d="m 469.12587,11.547195 h -93.2 c -4.4175,0 -8,3.580001 -8,8.000001 0,4.42 3.5825,8 8,8 h 93.2 c 4.4175,0 8,-3.58 8,-8 0,-4.42 -3.5825,-8.000001 -8,-8.000001 z m 0,0" />
    </g>
    <circle
       cx="323.22122"
       cy="205.3728"
       r="7.5"
       id="circle867-3"
       style="stroke-width:0.75" />
  </g>
</svg>
