<?xml version="1.0" encoding="UTF-8" standalone="no"?>
<svg
   xmlns:dc="http://purl.org/dc/elements/1.1/"
   xmlns:cc="http://creativecommons.org/ns#"
   xmlns:rdf="http://www.w3.org/1999/02/22-rdf-syntax-ns#"
   xmlns:svg="http://www.w3.org/2000/svg"
   xmlns="http://www.w3.org/2000/svg"
   xmlns:sodipodi="http://sodipodi.sourceforge.net/DTD/sodipodi-0.dtd"
   xmlns:inkscape="http://www.inkscape.org/namespaces/inkscape"
   viewBox="0 0 917.04 773"
   version="1.1"
   id="svg187"
   sodipodi:docname="convo_scene.svg"
   inkscape:version="0.92.5 (2060ec1f9f, 2020-04-08)">
  <metadata
     id="metadata191">
    <rdf:RDF>
      <cc:Work
         rdf:about="">
        <dc:format>image/svg+xml</dc:format>
        <dc:type
           rdf:resource="http://purl.org/dc/dcmitype/StillImage" />
      </cc:Work>
    </rdf:RDF>
  </metadata>
  <sodipodi:namedview
     pagecolor="#ffffff"
     bordercolor="#666666"
     borderopacity="1"
     objecttolerance="10"
     gridtolerance="10"
     guidetolerance="10"
     inkscape:pageopacity="0"
     inkscape:pageshadow="2"
     inkscape:window-width="1920"
     inkscape:window-height="1016"
     id="namedview189"
     showgrid="false"
     inkscape:zoom="0.61060802"
     inkscape:cx="949.04805"
     inkscape:cy="239.19245"
     inkscape:window-x="0"
     inkscape:window-y="27"
     inkscape:window-maximized="0"
     inkscape:current-layer="svg187" />
  <defs
     id="defs4">
    <style
       id="style2">.cls-1{fill:#faefe9;}.cls-2,.cls-6{fill:#fff;}.cls-14,.cls-18,.cls-3{fill:none;}.cls-3{stroke:#000;}.cls-18,.cls-3{stroke-miterlimit:10;}.cls-4{fill:#f2f2f2;}.cls-10,.cls-5,.cls-7{fill:#50b89d;}.cls-5{opacity:0.7;}.cls-6{font-size:44.04px;font-family:ProximaNova-Medium, Proxima Nova;}.cls-7{opacity:0.44;}.cls-8{fill:#ab8de5;}.cls-9{fill:#73e5e2;}.cls-11{fill:#f98b67;}.cls-12{fill:#1f161e;}.cls-13{fill:#fbdc8e;}.cls-14{stroke:#fff;stroke-linejoin:round;stroke-width:0.4px;}.cls-14,.cls-18{stroke-linecap:round;}.cls-15{fill:#b37361;}.cls-16{fill:#f8cdba;}.cls-17{fill:#fa9e9f;}.cls-18{stroke:#1f161e;}.cls-19{fill:#969696;}</style>
    <style
       id="style998">.cls-1{fill:#8e554a;}.cls-2{fill:#b27363;}.cls-3{fill:none;stroke:#78e5e1;stroke-linecap:round;stroke-linejoin:round;stroke-width:4px;}</style>
  </defs>
  <title
     id="title6">example-scene-1</title>
  <g
     id="g1201">
    <g
       transform="translate(-0.00105604)"
       data-name="Layer 2"
       id="Layer_2">
      <g
         id="Background">
        <circle
           style="fill:#faefe9"
           id="circle8"
           r="386.5"
           cy="386.5"
           cx="468.03"
           class="cls-1" />
      </g>
      <g
         data-name="Middle ground"
         id="Middle_ground">
        <rect
           style="fill:#ffffff"
           id="rect11"
           height="367"
           width="237"
           y="218"
           x="445.53"
           class="cls-2" />
        <line
           style="fill:none;stroke:#000000;stroke-width:4px;stroke-linecap:round;stroke-linejoin:round;stroke-miterlimit:10"
           id="line13"
           y2="442"
           x2="641.03003"
           y1="442"
           x1="398.03"
           class="cls-3" />
        <line
           style="fill:none;stroke:#000000;stroke-width:4px;stroke-linecap:round;stroke-linejoin:round;stroke-miterlimit:10"
           id="line15"
           y2="466"
           x2="641.03003"
           y1="466"
           x1="398.03"
           class="cls-3" />
        <line
           style="fill:none;stroke:#000000;stroke-width:4px;stroke-linecap:round;stroke-linejoin:round;stroke-miterlimit:10"
           id="line17"
           y2="490"
           x2="641.03003"
           y1="490"
           x1="398.03"
           class="cls-3" />
        <line
           style="fill:none;stroke:#000000;stroke-width:4px;stroke-linecap:round;stroke-linejoin:round;stroke-miterlimit:10"
           id="line19"
           y2="514"
           x2="641.03003"
           y1="514"
           x1="398.03"
           class="cls-3" />
        <circle
           style="fill:#f2f2f2"
           id="circle21"
           r="62"
           cy="325"
           cx="564.03003"
           class="cls-4" />
        <rect
           style="opacity:0.7;fill:#50b89d"
           id="rect23"
           height="91"
           width="98"
           y="348.5"
           x="641.03003"
           class="cls-5" />
        <text
           style="font-size:44.04000092px;font-family:ProximaNova-Medium, 'Proxima Nova';fill:#ffffff"
           id="text25"
           transform="matrix(0.6,0,0,1,666.15,408.41)"
           class="cls-6">&lt; / &gt;</text>
        <rect
           style="fill:none;stroke:#000000;stroke-width:4px;stroke-linecap:round;stroke-linejoin:round;stroke-miterlimit:10"
           id="rect27"
           height="348"
           width="529"
           y="37.5"
           x="36.029999"
           class="cls-3" />
        <line
           style="fill:none;stroke:#000000;stroke-width:4px;stroke-linecap:round;stroke-linejoin:round;stroke-miterlimit:10"
           id="line29"
           y2="56"
           x2="565.03003"
           y1="56"
           x1="36.029999"
           class="cls-3" />
        <rect
           style="fill:none;stroke:#000000;stroke-width:4px;stroke-linecap:round;stroke-linejoin:round;stroke-miterlimit:10"
           id="rect31"
           height="159"
           width="159"
           y="87"
           x="74.529999"
           class="cls-3" />
        <line
           style="fill:none;stroke:#000000;stroke-width:4px;stroke-linecap:round;stroke-linejoin:round;stroke-miterlimit:10"
           id="line33"
           y2="101"
           x2="507.03"
           y1="101"
           x1="264.03"
           class="cls-3" />
        <line
           style="fill:none;stroke:#000000;stroke-width:4px;stroke-linecap:round;stroke-linejoin:round;stroke-miterlimit:10"
           id="line35"
           y2="125"
           x2="507.03"
           y1="125"
           x1="264.03"
           class="cls-3" />
        <line
           style="fill:none;stroke:#000000;stroke-width:4px;stroke-linecap:round;stroke-linejoin:round;stroke-miterlimit:10"
           id="line37"
           y2="149"
           x2="507.03"
           y1="149"
           x1="264.03"
           class="cls-3" />
        <line
           style="fill:none;stroke:#000000;stroke-width:4px;stroke-linecap:round;stroke-linejoin:round;stroke-miterlimit:10"
           id="line39"
           y2="173"
           x2="507.03"
           y1="173"
           x1="264.03"
           class="cls-3" />
        <polygon
           style="opacity:0.43999999;fill:#50b89d"
           id="polygon41"
           points="154.03,129 110.73,204 197.33,204 "
           class="cls-7" />
        <circle
           style="fill:#ab8de5"
           id="circle43"
           r="4.5"
           cy="47"
           cx="47.529999"
           class="cls-8" />
        <circle
           style="fill:#73e5e2"
           id="circle45"
           r="4.5"
           cy="47"
           cx="63.029999"
           class="cls-9" />
        <circle
           style="fill:#50b89d"
           id="circle47"
           r="4.5"
           cy="47"
           cx="78.529999"
           class="cls-10" />
        <polygon
           style="fill:#8fa2ff;fill-opacity:1"
           id="polygon49"
           points="269.03,321.25 284.03,308 268.73,308 "
           class="cls-8" />
        <rect
           style="fill:#8fa2ff;fill-opacity:1"
           id="rect51"
           ry="20.68"
           rx="20.68"
           height="51"
           width="116"
           y="258.5"
           x="254.03"
           class="cls-8" />
        <circle
           style="fill:#ffffff"
           id="circle53"
           r="4.5"
           cy="284"
           cx="296.53"
           class="cls-2" />
        <circle
           style="fill:#ffffff"
           id="circle55"
           r="4.5"
           cy="284"
           cx="312.03"
           class="cls-2" />
        <circle
           style="fill:#ffffff"
           id="circle57"
           r="4.5"
           cy="284"
           cx="327.53"
           class="cls-2" />
        <polygon
           style="fill:#73e5e2"
           id="polygon59"
           points="744.03,171.25 729.03,158 744.33,158 "
           class="cls-9" />
        <rect
           style="fill:#73e5e2"
           id="rect61"
           transform="rotate(-180,701.03,134)"
           ry="20.68"
           rx="20.68"
           height="51"
           width="116"
           y="108.5"
           x="643.03003"
           class="cls-9" />
        <circle
           style="fill:#ffffff"
           id="circle63"
           r="4.5"
           cy="134"
           cx="716.53003"
           class="cls-2" />
        <circle
           style="fill:#ffffff"
           id="circle65"
           r="4.5"
           cy="134"
           cx="701.03003"
           class="cls-2" />
        <circle
           style="fill:#ffffff"
           id="circle67"
           r="4.5"
           cy="134"
           cx="685.53003"
           class="cls-2" />
        <circle
           style="fill:#f98b67"
           id="circle69"
           r="4.5"
           cy="42.5"
           cx="736.03003"
           class="cls-11" />
        <circle
           style="fill:#f98b67"
           id="circle71"
           r="4.5"
           cy="61"
           cx="745.53003"
           class="cls-11" />
        <circle
           style="fill:#f98b67"
           id="circle73"
           r="7"
           cy="243.5"
           cx="642.03003"
           class="cls-11" />
        <circle
           style="fill:#f98b67"
           id="circle75"
           r="7"
           cy="267.5"
           cx="683.03003"
           class="cls-11" />
        <circle
           style="fill:#f98b67"
           id="circle77"
           r="7"
           cy="275.5"
           cx="53.029999"
           class="cls-11" />
        <path
           style="fill:none;stroke:#ffffff;stroke-width:0.40000001px;stroke-linecap:round;stroke-linejoin:round"
           inkscape:connector-curvature="0"
           id="path87"
           d="m 675.49,573.47 c -5.11,-5.57 -9.76,-21.36 -9.06,-25.46"
           class="cls-14" />
      </g>
      <g
         id="Man">
        <path
           style="fill:#1f161e"
           inkscape:connector-curvature="0"
           id="path96"
           d="m 775.47,321 c -2.53,12.07 -20.91,161.79 -14.9,197.55 6.01,35.76 104,110.69 108.29,112 5,-3.67 12.36,-15.7 12.36,-15.7 0,0 -71.85,-83.29 -73.22,-86.63 C 806.63,524.88 823.74,332 823.74,332 Z"
           class="cls-12" />
        <polygon
           style="fill:#8fa2ff;fill-opacity:1"
           id="polygon98"
           points="819.51,335.33 892.49,348.25 819.18,647.26 794.49,647.26 "
           class="cls-8" />
        <path
           style="fill:#fbdc8e"
           inkscape:connector-curvature="0"
           id="path100"
           d="m 840.42,177.05 c 10.12,0 62.91,1.71 72.45,20.29 9.54,18.58 0.55,104.46 -5.38,107.79 -3.2,1.79 -4.07,0.05 -5,3.69 -0.93,3.64 -10,39.43 -10,39.43 -5.76,0.16 -89.74,-12.49 -117,-27.28 0.16,-4.11 1.48,-14.8 1.48,-15.62 -3.62,1.48 -8,1.79 -9.2,0 -10.64,-16.11 5.22,-100.1 16.6,-117 4.84,-7.25 39.81,-11.25 56.05,-11.3 z"
           class="cls-13" />
        <path
           style="fill:#1f161e"
           inkscape:connector-curvature="0"
           id="path102"
           d="m 875.18,307.45 c 2.48,0 23.83,15 22,22.37 1.5,-5.92 6.22,-24.21 6.22,-24.21 -2.03,0.39 -26.4,1.87 -28.22,1.84 z"
           class="cls-12" />
        <path
           style="fill:#f8cdba"
           inkscape:connector-curvature="0"
           id="path104"
           d="m 853.49,186.85 c 0,3.26 -25.71,3.26 -25.71,0 v -33 h 25.71 z"
           class="cls-16" />
        <path
           style="fill:#1f161e"
           inkscape:connector-curvature="0"
           id="path106"
           d="m 838.74,161.66 c 2,0 14.75,5.64 14.75,8.78 v -16.59 c -3.18,0 -14.75,7.81 -14.75,7.81 z"
           class="cls-12" />
        <circle
           style="fill:#f8cdba"
           id="circle108"
           r="25.01"
           cy="139.06"
           cx="835.21997"
           class="cls-16" />
        <path
           style="fill:#1f161e"
           inkscape:connector-curvature="0"
           id="path110"
           d="m 826.76,102.5 c -12.84,0 -20.84,8.06 -20.84,18.39 0,8.59 2.08,13.45 4.53,14.68 1.55,-8.34 4.92,-12.2 7.71,-13.86 2.17,1.66 5.88,5.68 10.84,6.92 4.96,1.24 17.87,1 28.3,8.58 3.41,-3.1 6.81,-7.13 6.81,-11.88 0,-4.75 -2.1,-10.71 -14.45,-14.15 -8.16,-2.27 -9.3,-8.68 -22.9,-8.68 z"
           class="cls-12" />
        <ellipse
           style="fill:#fa9e9f"
           id="ellipse112"
           ry="2.28"
           rx="4.3800001"
           cy="144.21001"
           cx="811.84998"
           class="cls-17" />
        <ellipse
           style="fill:#fa9e9f"
           id="ellipse114"
           ry="2.28"
           rx="4.3800001"
           cy="144.21001"
           cx="839.40002"
           class="cls-17" />
        <path
           style="fill:none;stroke:#1f161e;stroke-linecap:round;stroke-miterlimit:10"
           inkscape:connector-curvature="0"
           id="path116"
           d="m 822.55,139.48 c -0.82,1.17 -5,6.08 -0.59,8.06"
           class="cls-18" />
        <path
           style="fill:none;stroke:#1f161e;stroke-linecap:round;stroke-miterlimit:10"
           inkscape:connector-curvature="0"
           id="path118"
           d="m 830.79,153.28 c 1.32,0 3.35,-1.64 4.42,-3.11"
           class="cls-18" />
        <circle
           style="fill:#f8cdba"
           id="circle120"
           r="5.7800002"
           cy="141.94"
           cx="858.34003"
           class="cls-16" />
        <path
           style="fill:none;stroke:#1f161e;stroke-linecap:round;stroke-miterlimit:10"
           inkscape:connector-curvature="0"
           id="path122"
           d="m 875.76,226.26 c -0.45,5.52 -2.21,32.8 -1.55,36.39 C 865.82,265.57 789,302 775.71,306"
           class="cls-18" />
        <path
           style="fill:none;stroke:#1f161e;stroke-linecap:round;stroke-miterlimit:10"
           inkscape:connector-curvature="0"
           id="path124"
           d="m 786.54,217.65 c -1.77,6.18 -7.73,34.23 -3.54,47.26"
           class="cls-18" />
        <path
           style="fill:none;stroke:#1f161e;stroke-linecap:round;stroke-miterlimit:10"
           inkscape:connector-curvature="0"
           id="path126"
           d="m 806.15,293.24 c 4,2.81 42.34,19.78 95.35,13.38"
           class="cls-18" />
        <path
           style="fill:#f8cdba"
           inkscape:connector-curvature="0"
           id="path128"
           d="m 802.48,264.91 c 2.57,0.41 -5.81,-6.28 -10.56,-3.79 -4.75,2.49 -11.15,13.76 -9.84,16.37 a 3.38,3.38 0 0 0 5,1.66 c 1.29,-0.83 10.92,-14.96 15.4,-14.24 z"
           class="cls-16" />
        <path
           style="fill:#1f161e"
           inkscape:connector-curvature="0"
           id="path130"
           d="m 880.4,616.08 c 1.37,1 13.52,9.22 13.62,14.4 0.1,5.18 -11.32,22.35 -13.62,22.84 -2.3,0.49 -3.94,-1.45 -3.94,-4.92 0,-3.47 4.34,-9.55 3.76,-12.25 -0.58,-2.7 -6.19,-7.64 -9.07,-7.73"
           class="cls-12" />
        <path
           style="fill:#1f161e"
           inkscape:connector-curvature="0"
           id="path132"
           d="m 816.84,647.26 c 0,2.38 1.38,17.32 -1.38,18.71 -2.76,1.39 -33.22,2.21 -34.6,0.83 -1.38,-1.38 -2.22,-4.29 -1,-5.12 1.22,-0.83 13,-3.19 14.6,-4.29 1.6,-1.1 3.81,-7 3,-10.13"
           class="cls-12" />
      </g>
      <g
         id="Woman">
        <rect
           style="fill:#b37361"
           id="rect135"
           height="98.089996"
           width="193.38"
           y="536.34003"
           x="26.01"
           class="cls-15" />
        <path
           style="fill:#1f161e"
           inkscape:connector-curvature="0"
           id="path137"
           d="m 314.66,490.37 c 0.84,5 15.1,119.31 17.41,121.2 2.31,1.89 26.84,6.08 28.94,2.94 0.42,-5 1,-84.72 2.3,-91.85"
           class="cls-12" />
        <path
           style="fill:#50b89d"
           inkscape:connector-curvature="0"
           id="path139"
           d="m 38.76,466.52 c -9.89,-4.87 10.73,91.67 65,91.67 54.27,0 145.62,-82.67 160.41,-82.67 32.65,0 109.94,64.1 116,64.1 4.64,-4.64 13.92,-12.76 13.92,-16 0,-3.24 -74,-125 -129.37,-125 -21.47,0.03 -203.63,78.93 -225.96,67.9 z"
           class="cls-10" />
        <path
           style="fill:#1f161e"
           inkscape:connector-curvature="0"
           id="path141"
           d="m 69.3,468.16 c 10.85,-2.46 24.35,-8.83 36.3,-15.34 -32.51,10.63 -59.15,17.5 -66.84,13.7 -5.24,-2.58 -1.92,23.26 10.4,48.15 C 46.93,509.86 43.75,474 69.3,468.16 Z"
           class="cls-12" />
        <path
           style="fill:#73e5e2"
           inkscape:connector-curvature="0"
           id="path143"
           d="m 93.22,298.8 c 8.55,0.23 53.06,-1.08 65.26,10.54 9.05,8.62 37.19,82.75 41.53,108.78 C 181.11,427.73 44.79,493 2.6,464.3 1.67,442 6,353.35 33.59,306.86 43.68,300.14 85,298.59 93.22,298.8 Z"
           class="cls-9" />
        <path
           style="fill:#f8cdba"
           inkscape:connector-curvature="0"
           id="path145"
           d="m 110.56,277.59 h -26 v 27.94 c 0,7 26,6.94 26,0 z"
           class="cls-16" />
        <path
           style="fill:#1f161e"
           inkscape:connector-curvature="0"
           id="path147"
           d="m 84.56,294.46 c 0,-3.1 8.59,-10.89 13.9,-10.61 0.13,-3.45 -12.13,-8.41 -12.13,-8.41 l -1.77,4.77 z"
           class="cls-12" />
        <path
           style="fill:#1f161e"
           inkscape:connector-curvature="0"
           id="path149"
           d="m 137.79,277.59 a 39.08,39.08 0 0 0 0.88,-8.23 c 0,-20.62 -16.11,-37.34 -36,-37.34 -19.89,0 -36,16.72 -36,37.34 a 39.08,39.08 0 0 0 0.88,8.23 z"
           class="cls-12" />
        <path
           style="fill:#f8cdba"
           inkscape:connector-curvature="0"
           id="path151"
           d="m 128.3,252.42 c -4.41,-0.67 -8.81,-4.14 -11.88,-6.41 C 98.92,258.83 87.71,259 86.5,259 c -1.21,0 -6.14,7.08 -8.41,7.88 l -0.2,-0.12 a 27.3,27.3 0 1 0 52.47,-14.33 8.36,8.36 0 0 1 -2.06,-0.01 z"
           class="cls-16" />
        <circle
           style="fill:#1f161e"
           id="circle153"
           r="10.62"
           cy="226.05"
           cx="83.169998"
           class="cls-12" />
        <path
           style="fill:none;stroke:#1f161e;stroke-linecap:round;stroke-miterlimit:10"
           inkscape:connector-curvature="0"
           id="path155"
           d="m 87.9,258.43 a 4.47,4.47 0 0 0 0,8.93"
           class="cls-18" />
        <path
           style="fill:none;stroke:#1f161e;stroke-linecap:round;stroke-miterlimit:10"
           inkscape:connector-curvature="0"
           id="path157"
           d="m 121.94,259 c 1.31,1.75 4.68,4.82 0,8.07"
           class="cls-18" />
        <path
           style="fill:none;stroke:#1f161e;stroke-linecap:round;stroke-miterlimit:10"
           inkscape:connector-curvature="0"
           id="path159"
           d="m 107.75,269.41 c 0,1.31 0.56,4.44 3.37,5.25"
           class="cls-18" />
        <ellipse
           style="fill:#fa9e9f"
           id="ellipse161"
           ry="2.1400001"
           rx="4.1199999"
           cy="267.57999"
           cx="99.040001"
           class="cls-17" />
        <ellipse
           style="fill:#fa9e9f"
           id="ellipse163"
           ry="2.1400001"
           rx="4.1199999"
           cy="267.57999"
           cx="129.67"
           class="cls-17" />
        <path
           style="fill:#f8cdba"
           inkscape:connector-curvature="0"
           id="path165"
           d="m 157.54,376.07 27.79,-7.15 C 188,373.46 201,418.07 201,418.07 l -42.9,18.08 c 0.56,-8.45 2.25,-47.15 -0.56,-60.08 z"
           class="cls-16" />
        <path
           style="fill:none;stroke:#1f161e;stroke-linecap:round;stroke-miterlimit:10"
           inkscape:connector-curvature="0"
           id="path167"
           d="m 60.1,369.08 c 0,3.36 -2.83,16.15 -4.5,22.16"
           class="cls-18" />
        <path
           style="fill:none;stroke:#1f161e;stroke-linecap:round;stroke-miterlimit:10"
           inkscape:connector-curvature="0"
           id="path169"
           d="m 157.54,376.07 c -0.67,-5.29 -4.59,-35.1 -11.26,-50.79"
           class="cls-18" />
        <path
           style="fill:#f8cdba"
           inkscape:connector-curvature="0"
           id="path171"
           d="m 157.54,376.07 27.79,-7.15 C 188,373.46 201,418.07 201,418.07 l -42.9,18.08 c 0.56,-8.45 2.25,-47.15 -0.56,-60.08 z"
           class="cls-16" />
        <path
           style="fill:#1f161e"
           inkscape:connector-curvature="0"
           id="path173"
           d="m 381,537.26 c 0.62,1 8.9,11.16 11.83,11.27 2.93,0.11 20.72,-11.94 19.94,-14.53 -0.78,-2.59 -11.94,-0.9 -13.86,-1.81 -1.92,-0.91 -6.21,-5.19 -6.91,-7.09"
           class="cls-12" />
        <path
           style="fill:#1f161e"
           inkscape:connector-curvature="0"
           id="path175"
           d="m 337.25,612.63 c -0.21,1.11 -1.34,14.2 0.69,16.32 2.03,2.12 23.2,5.8 24.43,3.39 1.23,-2.41 -8,-8.94 -8.71,-10.92 -0.71,-1.98 -0.86,-8 0,-9.88"
           class="cls-12" />
        <polygon
           style="fill:#969696"
           id="polygon177"
           points="326.48,361.46 304.06,420.87 209.89,420.87 232.31,361.46 "
           class="cls-19" />
        <rect
           style="fill:#969696"
           id="rect179"
           height="2.24"
           width="94.169998"
           y="418.63"
           x="131.42"
           class="cls-19" />
        <path
           style="fill:#f8cdba"
           inkscape:connector-curvature="0"
           id="path181"
           d="M 55.6,391.24 C 53.79,398 45,427 48.58,432 c 3.58,5 93.24,-6.33 117.23,-13.8 6.11,-2 10.64,-7.24 13.35,-7.92 a 14.31,14.31 0 0 1 16.16,10.22 c -9.58,4.64 -147.9,75.26 -192.72,43.83 -8.47,-6.07 6.39,-80.07 7.07,-83.8 7.57,0.91 45.93,10.71 45.93,10.71 z"
           class="cls-16" />
        <path
           style="fill:none;stroke:#1f161e;stroke-linecap:round;stroke-miterlimit:10"
           inkscape:connector-curvature="0"
           id="path183"
           d="m 158.82,420 c 2.7,-0.64 5.06,-1.27 7,-1.87 6.11,-2 10.64,-7.24 13.35,-7.92 a 14.31,14.31 0 0 1 16.16,10.22"
           class="cls-18" />
      </g>
    </g>
    <g
       transform="translate(-760.33009,-131.69514)"
       id="g1095">
      <g
         data-name="Layer 2"
         id="Layer_2-1"
         transform="matrix(0.46110929,-0.06970884,0.06970884,0.46110929,1297.3684,612.17606)">
        <g
           data-name="Layer 2"
           id="Layer_2-2">
          <path
             id="path1004"
             d="M 21.36,92.69 C 75.47,73.68 121.58,148 134,167.75 c 54.31,86.76 8.47,162.42 -15.6,171.1 C 76.44,354 30.89,285.85 18,264.27 -4,227.71 2.84,176.53 0.4,160.93 -2.04,145.33 6.93,97.76 21.36,92.69 Z"
             class="cls-1"
             inkscape:connector-curvature="0"
             style="fill:#8e554a" />
          <path
             id="path1006"
             d="m 161.26,0.56 c 34.12,-4.88 53.89,23.35 60,39.48 9.89,26.32 31.2,40.46 31.2,74.09 0,78.48 -47.77,141.36 -69.22,141.36 -47.28,0 -64.83,-49.72 -64.83,-70.68 0,-35.58 9.41,-78.49 8.29,-89.2 -2.36,-22 -15.54,-87.9 34.56,-95.05 z"
             class="cls-2"
             inkscape:connector-curvature="0"
             style="fill:#b27363" />
          <path
             id="path1008"
             d="m 50,151.84 c 11.89,15.54 72.93,158.78 85.34,318.74"
             class="cls-3"
             inkscape:connector-curvature="0"
             style="fill:none;stroke:#78e5e1;stroke-width:4px;stroke-linecap:round;stroke-linejoin:round" />
          <path
             id="path1010"
             d="m 89.34,146.6 c -1.29,4.88 -12,34.21 -20.64,44.17"
             class="cls-3"
             inkscape:connector-curvature="0"
             style="fill:none;stroke:#78e5e1;stroke-width:4px;stroke-linecap:round;stroke-linejoin:round" />
          <path
             id="path1012"
             d="M 34.18,238.43 C 42.39,243.88 66,249.19 90,249.33"
             class="cls-3"
             inkscape:connector-curvature="0"
             style="fill:none;stroke:#78e5e1;stroke-width:4px;stroke-linecap:round;stroke-linejoin:round" />
          <path
             id="path1014"
             d="m 120,272.71 c -2.22,2.78 -8.63,10.88 -18.39,14.81"
             class="cls-3"
             inkscape:connector-curvature="0"
             style="fill:none;stroke:#78e5e1;stroke-width:4px;stroke-linecap:round;stroke-linejoin:round" />
          <path
             id="path1016"
             d="m 175.75,96.45 c 14.05,94.32 -19.44,333.88 -20.64,374.13"
             class="cls-3"
             inkscape:connector-curvature="0"
             style="fill:none;stroke:#78e5e1;stroke-width:4px;stroke-linecap:round;stroke-linejoin:round" />
          <path
             id="path1018"
             d="m 209.74,104.4 c -3.7,5.68 -18.8,19.16 -30.27,23.35"
             class="cls-3"
             inkscape:connector-curvature="0"
             style="fill:none;stroke:#78e5e1;stroke-width:4px;stroke-linecap:round;stroke-linejoin:round" />
          <path
             id="path1020"
             d="m 143.73,175.09 c 7.38,3.4 21.25,9.37 34.61,9.37"
             class="cls-3"
             inkscape:connector-curvature="0"
             style="fill:none;stroke:#78e5e1;stroke-width:4px;stroke-linecap:round;stroke-linejoin:round" />
        </g>
      </g>
      <path
         class="cls-15"
         d="m 1413.2336,782.9136 h 21.52 l -18,67 h -48.13 l -17.71,-67 h 62.32"
         id="path91-9"
         style="fill:#969696;fill-opacity:1"
         inkscape:connector-curvature="0" />
      <g
         id="g1071"
         transform="translate(-13.61,0.05)">
        <path
           style="fill:#8fa2ff;fill-opacity:1"
           inkscape:connector-curvature="0"
           id="path79-0"
           d="m 1385.6736,782.9136 v -1 l -2.4,-3 -5.55,-6.74 -5.9,-7.14 c 0,0 -5.68,-3.93 -7.14,-4.61 -5.32,-2.46 -10.56,-4.34 -16.82,-4.34 -3.85,0 -18.24,0.58 -18.27,3 0,3.59 20.15,17.18 34.93,23.78 6.49,0.05 21.15,0.05 21.15,0.05 z"
           class="cls-12" />
        <path
           style="fill:none;stroke:#ffffff;stroke-width:0.40000001px;stroke-linecap:round;stroke-linejoin:round"
           inkscape:connector-curvature="0"
           id="path93-1"
           d="m 1336.6336,760.4436 c 10.49,0.72 23.69,1.2 33,7.55"
           class="cls-14" />
      </g>
      <g
         id="g1075"
         transform="translate(12.79,-0.14)">
        <path
           style="fill:#73e5e2"
           inkscape:connector-curvature="0"
           id="path83-7"
           d="m 1396.6236,782.9136 c -6.92,-5.62 -9.13,-22.26 -9.19,-28.47 -0.11,-11.59 1.67,-20.13 11.58,-32.88 9.91,-12.75 7.27,-33.9 20.43,-48.17 13.16,-14.27 21.88,-18.25 37.5,-18.25 15.62,0 20.58,25.32 20.5,31.69 -0.18,25.7 -16.37,29.34 -26.25,41.6 -7.17,8.9 -7.73,16.18 -9.9,20.34 -11.64,22.42 -21.1,30.85 -28.1,34.14"
           class="cls-9" />
        <path
           style="fill:none;stroke:#ffffff;stroke-width:0.40000001px;stroke-linecap:round;stroke-linejoin:round"
           inkscape:connector-curvature="0"
           id="path85-7"
           d="m 1400.4436,781.0536 c 0.2,-43.83 46.39,-109.66 56.26,-119.53"
           class="cls-14" />
      </g>
    </g>
  </g>
</svg>
