<?xml version="1.0" encoding="UTF-8" standalone="no"?>
<svg
   xmlns:dc="http://purl.org/dc/elements/1.1/"
   xmlns:cc="http://creativecommons.org/ns#"
   xmlns:rdf="http://www.w3.org/1999/02/22-rdf-syntax-ns#"
   xmlns:svg="http://www.w3.org/2000/svg"
   xmlns="http://www.w3.org/2000/svg"
   xmlns:sodipodi="http://sodipodi.sourceforge.net/DTD/sodipodi-0.dtd"
   xmlns:inkscape="http://www.inkscape.org/namespaces/inkscape"
   sodipodi:docname="desk_scene.svg"
   inkscape:version="0.92.5 (2060ec1f9f, 2020-04-08)"
   id="svg8"
   version="1.1"
   viewBox="0 0 105.83333 105.83334"
   height="400"
   width="400">
  <defs
     id="defs2">
    <style
       id="style833">.cls-1{fill:#e2e2e2;}.cls-2{fill:#ab91df;}.cls-3{fill:none;stroke:#000;stroke-miterlimit:10;stroke-width:2px;}.cls-4{fill:#78e5e1;}.cls-5{fill:#f8da96;opacity:0.68;}</style>
    <style
       id="style910">.cls-1{fill:none;stroke:#ab8de5;stroke-miterlimit:10;stroke-width:18px;}.cls-2{fill:#fcd995;}.cls-3{fill:#1f171e;}.cls-4{fill:#fff;}</style>
    <style
       id="style943">.cls-1{fill:#1f161e;}.cls-2{fill:#fbdc8e;}.cls-3{fill:#73e5e2;}.cls-4{fill:none;stroke:#fff;stroke-linecap:round;stroke-linejoin:round;stroke-width:0.4px;}.cls-5{fill:#b37361;}</style>
    <style
       id="style992">.cls-1{fill:#e2e2e2;}.cls-2{fill:#ccc;}.cls-3,.cls-4{fill:none;stroke-miterlimit:10;}.cls-3{stroke:#000;stroke-linecap:round;stroke-width:2px;}.cls-4{stroke:#ccc;stroke-width:19.81px;}.cls-5{fill:#ab8fe2;}</style>
    <style
       id="style1137">.cls-1{fill:#e2e2e2;}.cls-2{fill:#ccc;}.cls-3,.cls-4{fill:none;stroke-miterlimit:10;}.cls-3{stroke:#000;stroke-linecap:round;stroke-width:2px;}.cls-4{stroke:#ccc;stroke-width:19.81px;}.cls-5{fill:#ab8fe2;}</style>
    <style
       id="style1214">.cls-1{fill:#e2e2e2;}.cls-2{fill:#ab91df;}.cls-3{fill:none;stroke:#000;stroke-miterlimit:10;stroke-width:2px;}.cls-4{fill:#78e5e1;}.cls-5{fill:#f8da96;opacity:0.68;}</style>
    <style
       id="style1775">.cls-1{fill:#d8d8d8;}.cls-2{fill:#969696;}</style>
    <style
       id="style940">.cls-1{fill:none;stroke:#000;stroke-miterlimit:10;}.cls-2{fill:#f2f2f2;}.cls-3{fill:#ab8de5;}.cls-4{fill:#73e5e2;}.cls-5{fill:#50b89d;}.cls-6{fill:#b0dcd1;}</style>
    <style
       id="style1120">.cls-1{fill:#fbdc8e;}.cls-2{fill:#969696;}.cls-3{fill:#ab8de5;}.cls-4{fill:#78e5e1;}.cls-5{fill:#d8d8d8;}</style>
    <style
       id="style1165">.cls-1{fill:#1f161e;}.cls-2{fill:#fbdc8e;}.cls-3{fill:#73e5e2;}.cls-4{fill:none;stroke:#fff;stroke-linecap:round;stroke-linejoin:round;stroke-width:0.4px;}.cls-5{fill:#b37361;}</style>
    <style
       id="style1214-6">.cls-1{fill:#1f161e;}.cls-2{fill:#fbdc8e;}.cls-3{fill:#73e5e2;}.cls-4{fill:none;stroke:#fff;stroke-linecap:round;stroke-linejoin:round;stroke-width:0.4px;}.cls-5{fill:#b37361;}</style>
    <style
       id="style1271">.cls-1{fill:#b27363;}.cls-2{fill:#98574c;}.cls-3,.cls-5{fill:none;stroke:#b27363;stroke-miterlimit:10;}.cls-3{stroke-width:20px;}.cls-4{fill:#fadb93;}.cls-5{stroke-width:9px;}</style>
    <style
       id="style1320">.cls-1{fill:#fadb93;opacity:0.57;}.cls-2{fill:none;stroke:#000;stroke-linecap:round;stroke-linejoin:round;stroke-width:0.41px;}</style>
    <style
       id="style1365">.cls-1{fill:#fadb93;opacity:0.57;}.cls-2{fill:none;stroke:#000;stroke-linecap:round;stroke-linejoin:round;stroke-width:0.41px;}</style>
    <style
       id="style1454">.cls-1{fill:#e2e2e2;}.cls-2{fill:#efefef;}</style>
    <rect
       id="rect1003"
       height="77.464305"
       width="88.410826"
       y="256.95269"
       x="-111.27906" />
    <style
       id="style2">.cls-1,.cls-11,.cls-13,.cls-2,.cls-3{fill:none;stroke-linecap:round;}.cls-1,.cls-13,.cls-2{stroke:#000;}.cls-1,.cls-2,.cls-3{stroke-miterlimit:10;}.cls-1{stroke-width:4px;}.cls-13,.cls-2{stroke-width:2px;}.cls-3{stroke:#1f161e;}.cls-4{fill:#fbdc8e;}.cls-5{fill:#969696;}.cls-6{fill:#ab8de5;}.cls-7{fill:#78e5e1;}.cls-8{fill:#d8d8d8;}.cls-9{fill:#64ccc4;}.cls-10,.cls-12{fill:#fff;}.cls-11{stroke:#969696;stroke-width:0.82px;}.cls-11,.cls-13{stroke-linejoin:round;}.cls-12{font-size:7.3px;font-family:SofiaPro-Bold, Sofia Pro;font-weight:700;}.cls-14{fill:#1f161e;}.cls-15{fill:#55b79d;}.cls-16{fill:#f8cdba;}.cls-17{fill:#fa9e9f;}</style>
    <style
       id="style915">.cls-1{fill:none;stroke:#ab8de5;stroke-miterlimit:10;stroke-width:18px;}.cls-2{fill:#fcd995;}.cls-3{fill:#1f171e;}.cls-4{fill:#fff;}</style>
    <style
       id="style933">.cls-1,.cls-11,.cls-13,.cls-2,.cls-3{fill:none;stroke-linecap:round;}.cls-1,.cls-13,.cls-2{stroke:#000;}.cls-1,.cls-2,.cls-3{stroke-miterlimit:10;}.cls-1{stroke-width:4px;}.cls-13,.cls-2{stroke-width:2px;}.cls-3{stroke:#1f161e;}.cls-4{fill:#fbdc8e;}.cls-5{fill:#969696;}.cls-6{fill:#ab8de5;}.cls-7{fill:#78e5e1;}.cls-8{fill:#d8d8d8;}.cls-9{fill:#64ccc4;}.cls-10,.cls-12{fill:#fff;}.cls-11{stroke:#969696;stroke-width:0.82px;}.cls-11,.cls-13{stroke-linejoin:round;}.cls-12{font-size:7.3px;font-family:SofiaPro-Bold, Sofia Pro;font-weight:700;}.cls-14{fill:#1f161e;}.cls-15{fill:#55b79d;}.cls-16{fill:#f8cdba;}.cls-17{fill:#fa9e9f;}</style>
    <style
       id="style1688">.cls-1{fill:#78e5e1;}.cls-2{fill:#fff;}</style>
    <style
       id="style1725">.cls-1{fill:#f8da96;}.cls-2{fill:#ab94dc;}.cls-3{fill:#fff;}</style>
    <style
       id="style889">.cls-1{fill:#78e5e1;}.cls-2{fill:#fff;}.cls-3{fill:#f8cdba;}.cls-4{fill:#1f161e;}.cls-5{fill:#fa9e9f;}.cls-6,.cls-7{fill:none;stroke-linecap:round;stroke-miterlimit:10;}.cls-6{stroke:#1f161e;stroke-width:0.69px;}.cls-7{stroke:#fff;stroke-width:14px;}</style>
    <style
       id="style984">.cls-1{fill:#1f161e;}.cls-2{fill:#fbdc8e;}.cls-3{fill:#73e5e2;}.cls-4{fill:none;stroke:#fff;stroke-linecap:round;stroke-linejoin:round;stroke-width:0.4px;}.cls-5{fill:#b37361;}</style>
    <style
       id="style1033">.cls-1{fill:#fadb93;opacity:0.57;}.cls-2{fill:none;stroke:#000;stroke-linecap:round;stroke-linejoin:round;stroke-width:0.41px;}</style>
    <style
       id="style4712">.cls-1{fill:#1f161e;}.cls-2{fill:#fbdc8e;}.cls-3{fill:#73e5e2;}.cls-4{fill:none;stroke:#fff;stroke-linecap:round;stroke-linejoin:round;stroke-width:0.4px;}.cls-5{fill:#b37361;}</style>
    <style
       id="style4753">.cls-1{fill:#78e5e1;}.cls-2{fill:#fff;}.cls-3{fill:#f8cdba;}.cls-4{fill:#1f161e;}.cls-5{fill:#fa9e9f;}.cls-6,.cls-7{fill:none;stroke-linecap:round;stroke-miterlimit:10;}.cls-6{stroke:#1f161e;stroke-width:0.69px;}.cls-7{stroke:#fff;stroke-width:14px;}</style>
    <rect
       x="-111.27906"
       y="256.95269"
       width="88.410826"
       height="77.464305"
       id="rect1003-59" />
    <style
       id="style2-4">.cls-1,.cls-11,.cls-13,.cls-2,.cls-3{fill:none;stroke-linecap:round;}.cls-1,.cls-13,.cls-2{stroke:#000;}.cls-1,.cls-2,.cls-3{stroke-miterlimit:10;}.cls-1{stroke-width:4px;}.cls-13,.cls-2{stroke-width:2px;}.cls-3{stroke:#1f161e;}.cls-4{fill:#fbdc8e;}.cls-5{fill:#969696;}.cls-6{fill:#ab8de5;}.cls-7{fill:#78e5e1;}.cls-8{fill:#d8d8d8;}.cls-9{fill:#64ccc4;}.cls-10,.cls-12{fill:#fff;}.cls-11{stroke:#969696;stroke-width:0.82px;}.cls-11,.cls-13{stroke-linejoin:round;}.cls-12{font-size:7.3px;font-family:SofiaPro-Bold, Sofia Pro;font-weight:700;}.cls-14{fill:#1f161e;}.cls-15{fill:#55b79d;}.cls-16{fill:#f8cdba;}.cls-17{fill:#fa9e9f;}</style>
    <style
       id="style915-9">.cls-1{fill:none;stroke:#ab8de5;stroke-miterlimit:10;stroke-width:18px;}.cls-2{fill:#fcd995;}.cls-3{fill:#1f171e;}.cls-4{fill:#fff;}</style>
    <style
       id="style933-0">.cls-1,.cls-11,.cls-13,.cls-2,.cls-3{fill:none;stroke-linecap:round;}.cls-1,.cls-13,.cls-2{stroke:#000;}.cls-1,.cls-2,.cls-3{stroke-miterlimit:10;}.cls-1{stroke-width:4px;}.cls-13,.cls-2{stroke-width:2px;}.cls-3{stroke:#1f161e;}.cls-4{fill:#fbdc8e;}.cls-5{fill:#969696;}.cls-6{fill:#ab8de5;}.cls-7{fill:#78e5e1;}.cls-8{fill:#d8d8d8;}.cls-9{fill:#64ccc4;}.cls-10,.cls-12{fill:#fff;}.cls-11{stroke:#969696;stroke-width:0.82px;}.cls-11,.cls-13{stroke-linejoin:round;}.cls-12{font-size:7.3px;font-family:SofiaPro-Bold, Sofia Pro;font-weight:700;}.cls-14{fill:#1f161e;}.cls-15{fill:#55b79d;}.cls-16{fill:#f8cdba;}.cls-17{fill:#fa9e9f;}</style>
    <style
       id="style895">.cls-1{fill:#fadb93;opacity:0.57;}.cls-2{fill:none;stroke:#000;stroke-linecap:round;stroke-linejoin:round;stroke-width:0.41px;}</style>
  </defs>
  <sodipodi:namedview
     inkscape:guide-bbox="true"
     showguides="true"
     inkscape:window-maximized="1"
     inkscape:window-y="27"
     inkscape:window-x="0"
     inkscape:window-height="1016"
     inkscape:window-width="1920"
     units="px"
     showgrid="false"
     inkscape:document-rotation="0"
     inkscape:current-layer="layer1"
     inkscape:document-units="mm"
     inkscape:cy="28.000548"
     inkscape:cx="57.250994"
     inkscape:zoom="6.88"
     inkscape:pageshadow="2"
     inkscape:pageopacity="0.0"
     borderopacity="1.0"
     bordercolor="#666666"
     pagecolor="#ffffff"
     id="base" />
  <metadata
     id="metadata5">
    <rdf:RDF>
      <cc:Work
         rdf:about="">
        <dc:format>image/svg+xml</dc:format>
        <dc:type
           rdf:resource="http://purl.org/dc/dcmitype/StillImage" />
        <dc:title />
      </cc:Work>
    </rdf:RDF>
  </metadata>
  <g
     id="layer1"
     inkscape:groupmode="layer"
     inkscape:label="Layer 1">
    <path
       sodipodi:nodetypes="ccccccc"
       d="m 52.463668,82.457182 c -20.118865,1.36e-4 -39.22517,2.306123 -52.26992656,6.308587 V 105.83333 H 105.15233 c 0.23475,-0.0733 0.46726,-0.14721 0.6975,-0.22153 V 89.116714 C 92.814197,84.904695 73.19383,82.457198 52.463668,82.457182 Z"
       style="opacity:1;fill:#efefef;fill-opacity:1;stroke:none;stroke-width:0.431909;stroke-linecap:round;stroke-linejoin:round"
       id="path1337" />
    <g
       data-name="Layer 2"
       id="Layer_2"
       transform="matrix(0.26458333,0,0,0.26458333,66.614083,39.941014)">
      <g
         data-name="Middle ground"
         id="Middle_ground">
        <path
           id="path4718"
           d="m 56.42,133.75 v -1 l -2.4,-3 -5.5,-6.75 -5.9,-7.14 c 0,0 -5.68,-3.93 -7.14,-4.61 -5.32,-2.46 -10.56,-4.34 -16.82,-4.34 -3.85,0 -18.24,0.58 -18.27,3 0,3.59 20.15,17.18 34.93,23.78 6.44,0.06 21.1,0.06 21.1,0.06 z"
           class="cls-1"
           inkscape:connector-curvature="0"
           style="fill:#1f161e" />
        <path
           id="path4720"
           d="M 53.37,133.75 C 32.86,118 -9,31.9 1.73,0 24.59,11.65 49.67,51.82 61.5,85.74 a 60.79,60.79 0 0 1 1.5,6.71 l 4.8,22 1.2,19.3 z"
           class="cls-2"
           inkscape:connector-curvature="0"
           style="fill:#fbdc8e;stroke:none" />
        <path
           id="path4722"
           d="M 67.37,133.75 C 60.45,128.13 58.24,111.49 58.18,105.28 58.07,93.69 59.85,85.15 69.76,72.4 79.67,59.65 77,38.49 90.2,24.23 103.4,9.97 112.08,6 127.7,6 143.32,6 148.27,31.32 148.23,37.69 148.05,63.37 131.86,67 122,79.27 c -7.17,8.9 -7.73,16.18 -9.9,20.34 C 100.44,122 91,130.46 84,133.75"
           class="cls-3"
           inkscape:connector-curvature="0"
           style="fill:#73e5e2;stroke:none" />
        <path
           id="path4724"
           d="M 71.15,131.89 C 71.35,88.06 117.54,22.23 127.41,12.36"
           class="cls-4"
           inkscape:connector-curvature="0"
           style="fill:none;stroke:#ffffff;stroke-width:0.40000001px;stroke-linecap:round;stroke-linejoin:round" />
        <path
           id="path4726"
           d="M 73.68,112 C 68.57,106.43 63.92,90.64 64.62,86.54"
           class="cls-4"
           inkscape:connector-curvature="0"
           style="fill:none;stroke:#ffffff;stroke-width:0.40000001px;stroke-linecap:round;stroke-linejoin:round" />
        <path
           id="path4728"
           d="M 60.59,130 C 53.35,117.14 19,54.58 6.15,8.49"
           class="cls-4"
           inkscape:connector-curvature="0"
           style="fill:none;stroke:#ffffff;stroke-width:0.40000001px;stroke-linecap:round;stroke-linejoin:round" />
        <path
           id="path4730"
           d="m 84,133.75 h 21.5 l -18,67.05 H 39.37 L 21.66,133.75 H 84"
           class="cls-5"
           inkscape:connector-curvature="0"
           style="fill:#b37361;opacity:1" />
        <path
           id="path4732"
           d="m 7.38,111.28 c 10.49,0.72 23.69,1.2 33.05,7.55"
           class="cls-4"
           inkscape:connector-curvature="0"
           style="fill:none;stroke:#ffffff;stroke-width:0.40000001px;stroke-linecap:round;stroke-linejoin:round" />
      </g>
    </g>
    <g
       transform="matrix(2.9419784,0,0,2.9419784,17.612926,49.110431)"
       id="g910"
       style="fill:#000000">
      <g
         id="g908">
        <path
           id="path904"
           d="M 3.2805295,5.8201324 H 20.71947 V 16.028758 H 3.2805295 Z"
           style="opacity:1;fill:#ffffff;stroke-width:1.05483"
           enable-background="new"
           opacity="0.3" />
        <path
           id="path906"
           d="M 20.71947,18 C 20.71947,18 22,17.81947 22,16.71947 V 5.8201324 c 0,-1.1 -0.18053,-1.6402648 -1.28053,-1.6402648 H 3.2805295 C 2.1805295,4.1798676 2,4.7201324 2,5.8201324 V 16.71947 C 2,17.81947 3.2805295,18 3.2805295,18 H 0 v 1.28053 H 24 V 18 Z M 3.2805295,5.8201324 H 20.71947 V 16 H 3.2805295 Z"
           sodipodi:nodetypes="cssssssccccccccccc" />
      </g>
    </g>
    <g
       transform="matrix(0.04194974,0,0,0.04194974,-52.146001,80.092377)"
       id="g1062">
      <g
         id="g956"
         transform="translate(986.8271,-389.16869)">
        <path
           class="cls-1"
           d="m 308.14187,745.32294 h 50.18 c 23.77214,0 42.91,19.13786 42.91,42.91 v 89.68 c 0,23.77214 -19.13786,42.91 -42.91,42.91 h -50.18 c -23.77214,0 -42.91,-19.13786 -42.91,-42.91 v -89.68 c 0,-23.77214 19.13786,-42.91 42.91,-42.91 z"
           style="fill:none;stroke:#1f171e;stroke-width:18px;stroke-linecap:round;stroke-miterlimit:10;stroke-opacity:1"
           id="rect921" />
        <path
           style="fill:#fcd995;fill-opacity:1;stroke:none"
           class="cls-2"
           d="m 328.73188,704.32292 v 233.46 a 65.23,65.23 0 0 0 65,64.99998 h 192.96 a 65.23,65.23 0 0 0 65,-64.99998 v -233.46 z"
           id="path923" />
        <rect
           style="fill:#000000;fill-opacity:1"
           class="cls-3"
           x="296.23187"
           width="388"
           height="19"
           rx="9.5"
           ry="9.5"
           id="rect925"
           y="685.32294" />
      </g>
      <g
         id="g1052">
        <path
           sodipodi:nodetypes="sssssss"
           d="m 1558.4316,-21.541393 c -23.447,8.556853 54.4723,35.312773 39.0824,106.275448 -8.9156,41.109965 -57.2634,78.928995 -47.729,116.822935 11.6099,46.14298 21.7872,68.73357 50.1172,77.40647 20.6486,6.32133 -10.6439,-39.25747 -11.9098,-60.72291 -4.3422,-73.63145 52.2436,-94.87869 56.3016,-150.826634 2.2593,-31.149759 -7.6268,-117.506924 -85.8624,-88.955309 z"
           style="opacity:1;fill:#d8d8d8;fill-opacity:1;stroke:none;stroke-width:1.37402999;stroke-linecap:round;stroke-linejoin:round;stroke-opacity:1"
           id="path961-7"
           inkscape:connector-curvature="0" />
        <path
           sodipodi:nodetypes="asssssa"
           d="m 1445.4117,-32.05204 c -34.3222,18.67596 44.8707,50.494114 38.3665,110.766603 -6.7718,62.752237 -55.7086,85.402257 -36.6516,134.776357 9.89,25.62368 15.3051,65.28516 36.3869,69.39467 20.1419,3.92629 -10.3918,-50.03243 -11.5297,-71.79842 -3.9032,-74.6624 49.458,-84.42429 53.1057,-141.155566 2.0309,-31.58589 -41.7848,-122.602634 -79.6778,-101.983644 z"
           style="opacity:1;fill:#d8d8d8;fill-opacity:1;stroke:none;stroke-width:1.3118;stroke-linecap:round;stroke-linejoin:round;stroke-opacity:1"
           id="path961-6-7"
           inkscape:connector-curvature="0" />
        <path
           id="path961-6-7-3"
           style="opacity:1;fill:#d8d8d8;fill-opacity:1;stroke:none;stroke-width:1.17999005;stroke-linecap:round;stroke-linejoin:round;stroke-opacity:1"
           d="m 1348.0716,13.306513 c -41.6628,20.078526 46.4316,42.943072 36.8704,93.262517 -7.4192,39.0463 -47.1955,73.87532 -37.2316,107.82005 10.8989,37.13036 17.416,60.74573 36.9772,64.08653 19.5612,3.3408 -9.9866,-42.12598 -11.0801,-60.45236 -3.751,-62.86376 41.4118,-68.56242 44.9172,-116.32864 1.9517,-26.594478 -28.7104,-108.505126 -70.4531,-88.388097 z"
           sodipodi:nodetypes="ssszsss"
           inkscape:connector-curvature="0" />
      </g>
    </g>
    <g
       transform="matrix(0.26458333,0,0,0.26458333,-120.89245,82.987028)"
       data-name="Layer 2"
       id="Layer_2-2-5" />
    <g
       data-name="Layer 2"
       id="Layer_2-1"
       transform="matrix(0.03515499,0,0,0.03515499,36.042271,73.656435)">
      <g
         data-name="Layer 1"
         id="Layer_1-2">
        <rect
           id="rect4759"
           height="432"
           width="960"
           class="cls-1"
           x="0"
           y="0"
           style="fill:#8eb0ff;fill-opacity:1;stroke:none;stroke-width:4px;stroke-linecap:round;stroke-miterlimit:10" />
        <circle
           id="circle4761"
           r="137.5"
           cy="216"
           cx="215.5"
           class="cls-2"
           style="fill:#ffffff;stroke:none;stroke-width:2px;stroke-linecap:round;stroke-miterlimit:10" />
        <path
           id="path4763"
           d="m 197,337.81 c -1.86,9.53 -54.49,0 -52.49,-10.22 L 157,263.78 209.45,274 Z"
           class="cls-3"
           inkscape:connector-curvature="0"
           style="fill:#f8cdba;stroke:none;stroke-linecap:round;stroke-miterlimit:10" />
        <path
           id="path4765"
           d="m 149.54,301.89 c 1.11,-5.68 23,-26.65 32.36,-21.41 -11.49,-6.76 -19.81,-18.87 -24.94,-16.7 z"
           class="cls-4"
           inkscape:connector-curvature="0"
           style="fill:#1f161e" />
        <circle
           id="circle4767"
           r="69.459999"
           cy="229.41"
           cx="213.88"
           class="cls-3"
           style="fill:#f8cdba;stroke:none;stroke-linecap:round;stroke-miterlimit:10" />
        <ellipse
           id="ellipse4769"
           transform="rotate(-84.07,277.9427,251.45307)"
           ry="11.59"
           rx="6.0300002"
           cy="251.45"
           cx="277.95001"
           class="cls-5"
           style="fill:#fa9e9f" />
        <ellipse
           id="ellipse4771"
           transform="rotate(-84.07,205.47665,243.92343)"
           ry="11.59"
           rx="6.0300002"
           cy="243.92"
           cx="205.49001"
           class="cls-5"
           style="fill:#fa9e9f" />
        <path
           id="path4773"
           d="m 251.11,236.08 c 1.84,3.3 11.56,17.36 -0.66,21.37"
           class="cls-6"
           inkscape:connector-curvature="0"
           style="fill:none;stroke:#1f161e;stroke-width:0.69px;stroke-linecap:round;stroke-miterlimit:10" />
        <path
           id="path4775"
           d="m 225.65,270.12 c -3.45,-0.46 -8.36,-5.21 -10.79,-9.38"
           class="cls-6"
           inkscape:connector-curvature="0"
           style="fill:none;stroke:#1f161e;stroke-width:0.69px;stroke-linecap:round;stroke-miterlimit:10" />
        <circle
           id="circle4777"
           r="15.29"
           cy="220.78"
           cx="157.74001"
           class="cls-3"
           style="fill:#f8cdba;stroke:none;stroke-linecap:round;stroke-miterlimit:10" />
        <path
           id="path4779"
           d="m 168.07,234.27 c 0,20.35 -22.52,33.78 -30.09,33.78 -8.39,0 -9.5,-6.07 -9.5,-8.71 0,-8.53 5,-15.84 15.57,-25.07 -1.84,-3.17 -15.57,-19.92 -15.57,-43.55 0,-25 15.32,-45.91 25.6,-45.91 10.94,0 18.21,11.34 18.21,16.09 0,-34.9 37.42,-59.9 59.64,-59.9 20.72,0 24.28,9 24.28,16.36 0,16.06 -12.67,33.25 -17.42,37.47 11.59,-8.54 29.69,-17.15 45.39,-17.15 9.86,0 22.43,2.78 22.43,16.36 0,24.89 -23.31,39.3 -31.1,43.33 -3.91,-7.72 -8,-12.08 -11.33,-15.93 1.44,4.7 -4.32,13.25 -15.31,15.18 -6.07,1.06 -80.8,-9 -80.8,37.65 z"
           class="cls-4"
           inkscape:connector-curvature="0"
           style="fill:#1f161e" />
        <line
           id="line4781"
           y2="133.5"
           x2="889"
           y1="133.5"
           x1="424"
           class="cls-7"
           style="fill:none;stroke:#ffffff;stroke-width:14px;stroke-linecap:round;stroke-miterlimit:10" />
        <line
           id="line4783"
           y2="188.5"
           x2="889"
           y1="188.5"
           x1="424"
           class="cls-7"
           style="fill:none;stroke:#ffffff;stroke-width:14px;stroke-linecap:round;stroke-miterlimit:10" />
        <line
           id="line4785"
           y2="243.5"
           x2="889"
           y1="243.5"
           x1="424"
           class="cls-7"
           style="fill:none;stroke:#ffffff;stroke-width:14px;stroke-linecap:round;stroke-miterlimit:10" />
        <line
           id="line4787"
           y2="298.5"
           x2="889"
           y1="298.5"
           x1="424"
           class="cls-7"
           style="fill:none;stroke:#ffffff;stroke-width:14px;stroke-linecap:round;stroke-miterlimit:10" />
      </g>
    </g>
    <g
       data-name="Layer 2"
       id="Layer_2-10"
       transform="matrix(0.25131361,0,0,0.25131361,82.464243,93.712053)">
      <g
         data-name="Layer 2"
         id="Layer_2-2">
        <circle
           id="circle901"
           r="13.31"
           cy="34.720001"
           cx="47.880001"
           class="cls-1"
           style="opacity:0.56999966;fill:#fadb93;stroke:none" />
        <circle
           id="circle903"
           r="13.31"
           cy="20.299999"
           cx="79.459999"
           class="cls-1"
           style="opacity:0.56999966;fill:#fadb93;stroke:none" />
        <circle
           id="circle905"
           r="13.31"
           cy="33.200001"
           cx="42.91"
           class="cls-2"
           style="fill:none;stroke:#000000;stroke-width:0.41px;stroke-linecap:round;stroke-linejoin:round" />
        <circle
           id="circle907"
           r="13.31"
           cy="18.780001"
           cx="74.489998"
           class="cls-2"
           style="fill:none;stroke:#000000;stroke-width:0.41px;stroke-linecap:round;stroke-linejoin:round" />
        <line
           id="line909"
           y2="23.82"
           x2="0.20999999"
           y1="33.200001"
           x1="29.59"
           class="cls-2"
           style="fill:none;stroke:#000000;stroke-width:0.41px;stroke-linecap:round;stroke-linejoin:round" />
        <line
           id="line911"
           y2="24.469999"
           x2="62.450001"
           y1="26.959999"
           x1="54.68"
           class="cls-2"
           style="fill:none;stroke:#000000;stroke-width:0.41px;stroke-linecap:round;stroke-linejoin:round" />
        <line
           id="line913"
           y2="0.20999999"
           x2="35.369999"
           y1="9.5900002"
           x1="64.760002"
           class="cls-2"
           style="fill:none;stroke:#000000;stroke-width:0.41px;stroke-linecap:round;stroke-linejoin:round" />
      </g>
    </g>
  </g>
</svg>
