<?xml version="1.0" encoding="UTF-8" standalone="no"?>
<svg
   xmlns:dc="http://purl.org/dc/elements/1.1/"
   xmlns:cc="http://creativecommons.org/ns#"
   xmlns:rdf="http://www.w3.org/1999/02/22-rdf-syntax-ns#"
   xmlns:svg="http://www.w3.org/2000/svg"
   xmlns="http://www.w3.org/2000/svg"
   xmlns:sodipodi="http://sodipodi.sourceforge.net/DTD/sodipodi-0.dtd"
   xmlns:inkscape="http://www.inkscape.org/namespaces/inkscape"
   width="67.733337mm"
   height="67.733337mm"
   viewBox="0 0 67.733338 67.733338"
   version="1.1"
   id="svg8"
   inkscape:version="1.0 (4035a4fb49, 2020-05-01)"
   sodipodi:docname="plan_modified.svg">
  <defs
     id="defs2" />
  <sodipodi:namedview
     id="base"
     pagecolor="#ffffff"
     bordercolor="#666666"
     borderopacity="1.0"
     inkscape:pageopacity="0.0"
     inkscape:pageshadow="2"
     inkscape:zoom="0.7"
     inkscape:cx="277.0325"
     inkscape:cy="526.60153"
     inkscape:document-units="mm"
     inkscape:current-layer="layer1"
     inkscape:document-rotation="0"
     showgrid="false"
     showguides="true"
     inkscape:guide-bbox="true"
     inkscape:window-width="1920"
     inkscape:window-height="1016"
     inkscape:window-x="0"
     inkscape:window-y="27"
     inkscape:window-maximized="1"
     fit-margin-top="0"
     fit-margin-left="0"
     fit-margin-right="0"
     fit-margin-bottom="0">
    <sodipodi:guide
       position="68.861531,-102.74973"
       orientation="1,0"
       id="guide1069" />
    <sodipodi:guide
       position="87.570401,-107.29332"
       orientation="1,0"
       id="guide1071" />
  </sodipodi:namedview>
  <metadata
     id="metadata5">
    <rdf:RDF>
      <cc:Work
         rdf:about="">
        <dc:format>image/svg+xml</dc:format>
        <dc:type
           rdf:resource="http://purl.org/dc/dcmitype/StillImage" />
        <dc:title></dc:title>
      </cc:Work>
    </rdf:RDF>
  </metadata>
  <g
     inkscape:label="Layer 1"
     inkscape:groupmode="layer"
     id="layer1"
     transform="translate(-43.391665,-154.51667)">
    <g
       id="g873"
       transform="matrix(0.13229167,0,0,0.13229167,43.391665,154.51667)">
      <g
         id="g863">
        <path
           id="path855"
           fill="#9bbeff"
           d="m 457,76 c -24.85,0 -45,20.15 -45,45 v 15 H 160 c 0,-28.055 0,-47.532 0,-51 C 160,43.58 126.42,10 85,10 43.58,10 10,43.58 10,85 v 342 c 0,41.42 33.58,75 75,75 h 372 c 24.85,0 45,-20.15 45,-45 V 121 C 502,96.15 481.85,76 457,76 Z"
           style="fill:#00c9ff;fill-opacity:1" />
        <g
           id="g861"
           fill="#eefaff">
          <path
             id="path857"
             d="m 502,121 v 336 c 0,-24.85 -20.15,-45 -45,-45 -24.85,0 -45,20.15 -45,45 0,-12.652 0,-314.088 0,-336 0,-24.85 20.15,-45 45,-45 24.85,0 45,20.15 45,45 z" />
          <path
             id="path859"
             d="M 85,10 C 43.58,10 10,43.58 10,85 v 342 c 0,-36.28 25.76,-66.55 60,-73.5 V 412 c 0,16.57 13.43,30 30,30 h 58.5 c 0.98,-4.84 1.5,-9.86 1.5,-15 0,-18.422 0,-327.142 0,-342 0,-41.42 -33.58,-75 -75,-75 z" />
        </g>
      </g>
      <g
         id="g871">
        <path
           id="path865"
           d="m 346,236 c 5.522,0 10,-4.478 10,-10 v -30 c 0,-5.522 -4.478,-10 -10,-10 H 226 c -5.522,0 -10,4.478 -10,10 v 240 c 0,5.522 4.478,10 10,10 h 120 c 5.522,0 10,-4.478 10,-10 0,-5.522 -4.478,-10 -10,-10 H 236 v -40 h 50 c 5.522,0 10,-4.478 10,-10 0,-5.522 -4.478,-10 -10,-10 h -50 v -40 h 100 v 50 c 0,5.522 4.478,10 10,10 5.522,0 10,-4.478 10,-10 v -90 c 0,-5.522 -4.478,-10 -10,-10 -5.522,0 -10,4.478 -10,10 v 20 H 236 V 206 h 40 v 50 c 0,5.522 4.478,10 10,10 5.522,0 10,-4.478 10,-10 v -50 h 40 v 20 c 0,5.522 4.478,10 10,10 z" />
        <circle
           id="circle867"
           r="10"
           cy="502"
           cx="296" />
        <path
           id="path869"
           d="m 457,66 c -30.327,0 -55,24.673 -55,55 v 5 H 170 V 85 C 170,38.131 131.869,0 85,0 38.131,0 0,38.131 0,85 v 342 c 0,46.869 38.131,85 85,85 h 165.999 c 5.522,0 10,-4.478 10,-10 0,-5.522 -4.478,-10 -10,-10 H 139.658 C 158.681,476.023 170,452.554 170,427 V 146 h 232 v 311 c 0,5.522 4.478,10 10,10 5.522,0 10,-4.478 10,-10 0,-19.299 15.701,-35 35,-35 19.299,0 35,15.701 35,35 0,19.299 -15.701,35 -35,35 H 341.001 c -5.522,0 -10,4.478 -10,10 0,5.522 4.478,10 10,10 H 457 c 30.327,0 55,-24.673 55,-55 V 121 C 512,90.673 487.327,66 457,66 Z M 85,492 C 49.159,492 20,462.841 20,427 20,400.466 36.24,376.918 60,366.995 V 412 c 0,22.056 17.944,40 40,39.99 h 45.004 C 135.08,475.761 111.533,492 85,492 Z m 64.789,-60 H 100 c -11.028,0 -20,-8.972 -20,-20 v -49.789 c 1.663,-0.127 3.331,-0.211 5,-0.211 35.841,0 65,29.159 65,65 0,1.669 -0.084,3.337 -0.211,5 z M 150,372.31 C 134.395,353.793 111.054,342 85,342 59.453,342 35.981,353.314 20,372.342 V 85 c 0,-35.841 29.159,-65 65,-65 35.841,0 65,29.159 65,65 z m 342,42.294 C 482.483,406.734 470.285,402 457,402 c -13.285,0 -25.483,4.733 -35,12.604 V 121 c 0,-19.299 15.701,-35 35,-35 19.299,0 35,15.701 35,35 z" />
      </g>
    </g>
  </g>
</svg>
