<?xml version="1.0" encoding="UTF-8" standalone="no"?>
<svg
   xmlns:dc="http://purl.org/dc/elements/1.1/"
   xmlns:cc="http://creativecommons.org/ns#"
   xmlns:rdf="http://www.w3.org/1999/02/22-rdf-syntax-ns#"
   xmlns:svg="http://www.w3.org/2000/svg"
   xmlns="http://www.w3.org/2000/svg"
   xmlns:sodipodi="http://sodipodi.sourceforge.net/DTD/sodipodi-0.dtd"
   xmlns:inkscape="http://www.inkscape.org/namespaces/inkscape"
   inkscape:version="1.0 (4035a4fb49, 2020-05-01)"
   sodipodi:docname="sign_modified.svg"
   id="svg66"
   version="1.1"
   width="256"
   viewBox="0 0 30 30"
   height="256">
  <metadata
     id="metadata72">
    <rdf:RDF>
      <cc:Work
         rdf:about="">
        <dc:format>image/svg+xml</dc:format>
        <dc:type
           rdf:resource="http://purl.org/dc/dcmitype/StillImage" />
        <dc:title></dc:title>
      </cc:Work>
    </rdf:RDF>
  </metadata>
  <defs
     id="defs70" />
  <sodipodi:namedview
     fit-margin-bottom="0"
     fit-margin-right="0"
     fit-margin-left="0"
     fit-margin-top="0"
     inkscape:current-layer="svg66"
     inkscape:window-maximized="0"
     inkscape:window-y="27"
     inkscape:window-x="0"
     inkscape:cy="-3.8000978"
     inkscape:cx="-248.417"
     inkscape:zoom="0.58902547"
     showgrid="false"
     id="namedview68"
     inkscape:window-height="1016"
     inkscape:window-width="1920"
     inkscape:pageshadow="2"
     inkscape:pageopacity="0"
     guidetolerance="10"
     gridtolerance="10"
     objecttolerance="10"
     borderopacity="1"
     bordercolor="#666666"
     pagecolor="#ffffff" />
  <g
     transform="translate(-21.610596,-8.5742264)"
     id="g1686">
    <path
       id="Shape"
       d="m 51.079347,12.808603 v 23 c 0,1.104569 -0.895431,2 -2,2 h -25 c -1.10457,0 -2,-0.895431 -2,-2 v -23 z"
       fill="#cad9fc"
       style="fill:#00c9ff;fill-opacity:1;stroke-width:0.5" />
    <path
       id="path5"
       d="m 51.079347,10.808603 v 2 h -29 v -2 c 0,-1.1045697 0.89543,-2.0000002 2,-2.0000002 h 25 c 1.104569,0 2,0.8954305 2,2.0000002 z"
       fill="#7facfa"
       style="fill:#000000;fill-opacity:0;stroke-width:0.5" />
    <rect
       id="Rectangle-path"
       fill="#a4c2f7"
       height="3"
       rx="0.5"
       width="15"
       x="24.579348"
       y="15.308602"
       style="fill:#ffffff;fill-opacity:1;stroke-width:0.5" />
    <path
       id="path10"
       d="m 48.579347,29.308603 v 6 c 0,0.276142 -0.223858,0.5 -0.5,0.5 h -23 c -0.276142,0 -0.5,-0.223858 -0.5,-0.5 v -6 c 0,-0.276143 0.223858,-0.5 0.5,-0.5 h 13.065 l -0.295,0.555 -0.435,4.11 c -0.02174,0.203175 0.08234,0.399133 0.262847,0.494891 0.180509,0.09576 0.40112,0.07204 0.557153,-0.05989 l 3.15,-2.675 1.285,-2.425 h 5.41 c 0.276142,0 0.5,0.223857 0.5,0.5 z"
       fill="#cad9fc"
       style="fill:#ffffff;fill-opacity:1;stroke-width:0.5" />
    <path
       id="path12"
       d="m 48.11271,29.074225 v 6 c 0,0.276142 -0.232468,0.5 -0.519231,0.5 H 25.266564 c -0.286763,0 -0.519231,-0.223858 -0.519231,-0.5 v -6 c 0,-0.276143 0.232468,-0.5 0.519231,-0.5 h 13.567495 l -0.306346,0.555 -0.451731,4.11 c -0.02258,0.203175 0.08551,0.399133 0.272957,0.494891 0.187451,0.09576 0.416547,0.07204 0.578582,-0.05989 l 3.271152,-2.675 1.334423,-2.425 h 4.060383 c 0.286763,0 0.519231,0.223857 0.519231,0.499999 z"
       fill="#e8edfc"
       style="fill:#000000;fill-opacity:0;stroke-width:0.509525" />
    <path
       id="path14"
       d="m 41.384347,31.233603 -3.15,2.675 c -0.156033,0.131934 -0.376644,0.155649 -0.557153,0.05989 -0.180508,-0.09576 -0.284586,-0.291716 -0.262847,-0.494891 l 0.435,-4.11 c 2.018,0.3395 1.98,0.245 3.535,1.870001 z"
       fill="#cad9fc"
       style="fill:#00c9ff;fill-opacity:1;stroke-width:0.5" />
    <path
       id="path16"
       d="m 44.999347,20.138603 -5.145,9.72 c -0.563,-0.296 -0.9555,-0.3185 -2.005,-0.495 l 5.385,-10.165 z"
       fill="#e8edfc"
       style="fill:#ffffff;fill-opacity:1;stroke-width:0.5" />
    <path
       id="path18"
       d="m 46.764347,21.073603 -5.38,10.16 c -0.428294,-0.541821 -0.945681,-1.006794 -1.53,-1.375 l 5.145,-9.72 z"
       fill="#cad9fc"
       style="fill:#00c9ff;fill-opacity:1;stroke-width:0.5" />
    <path
       id="path20"
       d="m 48.404347,17.978603 -0.7,1.325 -3.535,-1.87 0.7,-1.325 c 0.185937,-0.352452 0.504476,-0.616432 0.885324,-0.733689 0.380848,-0.117256 0.792701,-0.07815 1.144676,0.108689 l 0.88,0.465 c 0.352452,0.185936 0.616432,0.504475 0.733688,0.885324 0.117256,0.380848 0.07815,0.792701 -0.108688,1.144676 z"
       fill="#a4c2f7"
       style="fill:#ffffff;fill-opacity:1;stroke-width:0.5" />
    <path
       id="path22"
       d="m 47.704347,19.303603 -0.94,1.77 c -2.1185,-1.1225 -1.3075,-0.6915 -3.53,-1.875 l 0.935,-1.765 z"
       fill="#cad9fc"
       style="fill:#00c9ff;fill-opacity:1;stroke-width:0.5" />
    <g
       id="g63"
       fill="#428dff"
       transform="matrix(0.5,0,0,0.5,21.610596,8.5742264)"
       style="fill:#000000">
      <path
         d="m 1.02,52 c 0.5522848,0 1,-0.447715 1,-1 0,-0.552285 -0.4477152,-1 -1,-1 H 1.01 C 0.45771527,50.002761 0.01223863,50.452715 0.01500006,51.005 0.01776148,51.557285 0.46771527,52.002761 1.02,52 Z"
         id="path29"
         style="fill:#000000" />
      <path
         d="M 55,0 H 5 C 2.2399469,0.00330612 0.00330612,2.2399469 0,5 v 42 c 0,0.552285 0.44771525,1 1,1 0.5522847,0 1,-0.447715 1,-1 V 10 h 56 v 45 c 0,1.656854 -1.343146,3 -3,3 H 5 C 3.3431457,58 2,56.656854 2,55 2,54.447715 1.5522847,54 1,54 c -0.55228475,0 -1,0.447715 -1,1 0.00330612,2.760053 2.2399469,4.996694 5,5 h 50 c 2.760053,-0.0033 4.996694,-2.239947 5,-5 V 5 C 59.996694,2.2399469 57.760053,0.00330612 55,0 Z m 3,8 H 2 V 5 C 2,3.3431457 3.3431457,2 5,2 h 50 c 1.656854,0 3,1.3431457 3,3 z"
         id="path31"
         style="fill:#000000" />
      <path
         d="m 55,4 c 0,-0.5522847 -0.447715,-1 -1,-1 -0.552285,0 -1,0.4477153 -1,1 -0.552285,0 -1,0.4477152 -1,1 0,0.5522847 0.447715,1 1,1 0,0.5522847 0.447715,1 1,1 0.552285,0 1,-0.4477153 1,-1 0.552285,0 1,-0.4477153 1,-1 0,-0.5522848 -0.447715,-1 -1,-1 z"
         id="path33"
         style="fill:#000000" />
      <path
         d="m 49,4 h -2 c -0.552285,0 -1,0.4477152 -1,1 0,0.5522847 0.447715,1 1,1 h 2 C 49.552285,6 50,5.5522847 50,5 50,4.4477152 49.552285,4 49,4 Z"
         id="path35"
         style="fill:#000000" />
      <path
         d="m 37,15 c 0,-1.104569 -0.895431,-2 -2,-2 H 7 c -1.1045695,0 -2,0.895431 -2,2 v 4 c 0,1.104569 0.8954305,2 2,2 h 28 c 1.104569,0 2,-0.895431 2,-2 z M 7,19 v -4 h 28 v 4 z"
         id="path37"
         style="fill:#000000" />
      <path
         d="m 37,24 c 0,-0.552285 -0.447715,-1 -1,-1 H 7 c -0.5522848,0 -1,0.447715 -1,1 0,0.552285 0.4477152,1 1,1 h 29 c 0.552285,0 1,-0.447715 1,-1 z"
         id="path39"
         style="fill:#000000" />
      <path
         d="m 34,28 c 0,-0.552285 -0.447715,-1 -1,-1 H 7 c -0.5522848,0 -1,0.447715 -1,1 0,0.552285 0.4477152,1 1,1 h 26 c 0.552285,0 1,-0.447715 1,-1 z"
         id="path41"
         style="fill:#000000" />
      <path
         d="m 32,32 c 0,-0.552285 -0.447715,-1 -1,-1 H 7 c -0.5522848,0 -1,0.447715 -1,1 0,0.552285 0.4477152,1 1,1 h 24 c 0.552285,0 1,-0.447715 1,-1 z"
         id="path43"
         style="fill:#000000" />
      <path
         d="m 7,35 c -0.5522848,0 -1,0.447715 -1,1 0,0.552285 0.4477152,1 1,1 h 22 c 0.552285,0 1,-0.447715 1,-1 0,-0.552285 -0.447715,-1 -1,-1 z"
         id="path45"
         style="fill:#000000" />
      <path
         d="m 5,54 c 0,1.104569 0.8954305,2 2,2 h 46 c 1.104569,0 2,-0.895431 2,-2 V 42 c 0,-1.104569 -0.895431,-2 -2,-2 h -9.155 l 7.414,-14 0.709,-1.34 2.566,-4.846 C 55.569101,17.859673 54.82471,15.436264 52.871,14.4 L 51.1,13.465 c -1.950917,-1.029027 -4.366641,-0.284626 -5.4,1.664 L 44.3,17.78 42.428,21.315 32.53,40 H 7 C 5.8954305,40 5,40.895431 5,42 Z M 41.26,40.609 39.38,44.16 38.845,43.599 c -0.301142,-0.311513 -0.630556,-0.594393 -0.984,-0.845 l 9.4,-17.747 1.768,0.935 z m 6.2,-24.544 c 0.51668,-0.974313 1.724541,-1.346513 2.7,-0.832 l 1.768,0.936 c 0.974313,0.51668 1.346513,1.724541 0.832,2.7 l -0.936,1.768 -5.3,-2.807 z m -1.867,3.535 5.3,2.807 -0.816,1.541 -0.12,0.227 -5.3,-2.807 z m -1.872,3.535 1.768,0.936 -9.395,17.747 C 35.687851,41.667376 35.26877,41.554238 34.842,41.48 l -0.764,-0.127 z m -10.295,20.137 1.087,0.181 c 1.102352,0.182785 2.115514,0.718669 2.887,1.527 l 0.761,0.8 -5.5,4.663 z M 7,42 h 24.552 v 0.005 l -0.878,8.224 c -0.08681,0.813332 0.330381,1.597556 1.053373,1.980083 0.722992,0.382528 1.60605,0.286253 2.229627,-0.243083 l 6.307,-5.349 c 0.007,-0.007 0.011,-0.017 0.018,-0.024 0.0087,-0.0044 0.01703,-0.0094 0.025,-0.015 0.02936,-0.03639 0.05609,-0.07482 0.08,-0.115 0.04188,-0.04373 0.08001,-0.09089 0.114,-0.141 L 42.786,42 H 53 V 54 H 7 Z"
         id="path47"
         style="fill:#000000" />
      <path
         d="M 11,50 H 9 c -0.5522847,0 -1,0.447715 -1,1 0,0.552285 0.4477153,1 1,1 h 2 c 0.552285,0 1,-0.447715 1,-1 0,-0.552285 -0.447715,-1 -1,-1 z"
         id="path49"
         style="fill:#000000" />
      <path
         d="m 17,50 h -2 c -0.552285,0 -1,0.447715 -1,1 0,0.552285 0.447715,1 1,1 h 2 c 0.552285,0 1,-0.447715 1,-1 0,-0.552285 -0.447715,-1 -1,-1 z"
         id="path51"
         style="fill:#000000" />
      <path
         d="m 23,50 h -2 c -0.552285,0 -1,0.447715 -1,1 0,0.552285 0.447715,1 1,1 h 2 c 0.552285,0 1,-0.447715 1,-1 0,-0.552285 -0.447715,-1 -1,-1 z"
         id="path53"
         style="fill:#000000" />
      <path
         d="m 28,50 h -1 c -0.552285,0 -1,0.447715 -1,1 0,0.552285 0.447715,1 1,1 h 1 c 0.552285,0 1,-0.447715 1,-1 0,-0.552285 -0.447715,-1 -1,-1 z"
         id="path55"
         style="fill:#000000" />
      <path
         d="m 39,50 h -1 c -0.552285,0 -1,0.447715 -1,1 0,0.552285 0.447715,1 1,1 h 1 c 0.552285,0 1,-0.447715 1,-1 0,-0.552285 -0.447715,-1 -1,-1 z"
         id="path57"
         style="fill:#000000" />
      <path
         d="m 45,50 h -2 c -0.552285,0 -1,0.447715 -1,1 0,0.552285 0.447715,1 1,1 h 2 c 0.552285,0 1,-0.447715 1,-1 0,-0.552285 -0.447715,-1 -1,-1 z"
         id="path59"
         style="fill:#000000" />
      <path
         d="m 51,50 h -2 c -0.552285,0 -1,0.447715 -1,1 0,0.552285 0.447715,1 1,1 h 2 c 0.552285,0 1,-0.447715 1,-1 0,-0.552285 -0.447715,-1 -1,-1 z"
         id="path61"
         style="fill:#000000" />
    </g>
  </g>
</svg>
